<?xml version="1.0" encoding="UTF-8" standalone="no"?>
<svg
   xmlns:dc="http://purl.org/dc/elements/1.1/"
   xmlns:cc="http://creativecommons.org/ns#"
   xmlns:rdf="http://www.w3.org/1999/02/22-rdf-syntax-ns#"
   xmlns:svg="http://www.w3.org/2000/svg"
   xmlns="http://www.w3.org/2000/svg"
   version="1.1"
   id="svg2"
   viewBox="0 0 615.3916 175.85968"
   height="49.631512mm"
   width="173.67719mm">
  <defs
     id="defs4" />
  <metadata
     id="metadata7">
    <rdf:RDF>
      <cc:Work
         rdf:about="">
        <dc:format>image/svg+xml</dc:format>
        <dc:type
           rdf:resource="http://purl.org/dc/dcmitype/StillImage" />
        <dc:title></dc:title>
      </cc:Work>
    </rdf:RDF>
  </metadata>
  <g
     transform="translate(-87.95488,-326.94259)"
     id="layer1">
    <g
       id="text4136"
       style="font-style:normal;font-variant:normal;font-weight:normal;font-stretch:normal;font-size:139.61839294px;line-height:125%;font-family:'Oleo Script';-inkscape-font-specification:'Oleo Script, Normal';text-align:start;letter-spacing:0px;word-spacing:0px;writing-mode:lr-tb;text-anchor:start;fill:#ffffff;fill-opacity:1;stroke:none;stroke-width:1px;stroke-linecap:butt;stroke-linejoin:miter;stroke-opacity:1">
      <path
         id="path4818"
         style=""
         d="m 146.03613,402.05728 q 0,13.40337 -10.19214,21.222 -10.19214,7.81863 -24.71246,7.81863 -9.77328,0 -16.195731,-4.88665 -6.282827,-5.02626 -6.980919,-8.51672 1.535802,-4.60741 6.562064,-10.33176 5.026262,-5.72435 9.075196,-6.98092 7.12054,4.60741 13.26375,20.5239 9.07519,-0.27923 9.07519,-9.9129 0,-5.3055 -4.32817,-12.98451 -4.18855,-7.81863 -9.21481,-14.52032 -5.02626,-6.8413 -9.35443,-15.2184 -4.188556,-8.51672 -4.188556,-15.07879 0,-10.611 8.516726,-16.7542 8.65634,-6.14321 19.40695,-6.14321 10.75062,0 16.61459,4.6074 6.00359,4.60741 6.00359,10.47138 0,5.86398 -4.46779,12.00718 -4.46778,6.14321 -8.93557,9.77329 l -4.46779,3.63008 q 1.67542,2.23389 4.04893,5.72435 2.37351,3.49046 6.42245,11.86757 4.04893,8.3771 4.04893,13.6826 z m -10.75062,-45.79483 q 1.95466,-1.81504 3.49046,-4.32817 1.53581,-2.65275 1.53581,-5.44512 0,-2.93199 -3.35084,-4.88664 -3.35085,-1.95466 -8.09787,-1.95466 -4.60741,0 -7.81863,2.23389 -3.07161,2.09428 -3.07161,5.16588 0,2.93199 1.95466,6.98092 2.09428,3.90932 4.04894,6.56207 l 2.09427,2.65275 q 1.39618,-0.69809 4.32817,-2.93199 3.07161,-2.23389 4.88664,-4.04893 z" />
      <path
         id="path4820"
         style=""
         d="m 158.30728,429.84134 -2.65275,0 q 0,-6.56206 3.90931,-25.13131 4.04894,-18.56925 4.04894,-21.08238 0,-4.6074 -3.90932,-9.77329 l -1.25656,-1.67542 0.13961,-1.81503 q 7.5394,-2.09428 24.15399,-2.09428 1.95465,2.65275 1.95465,8.65634 12.56566,-9.35443 19.96543,-9.35443 9.35444,0 11.02986,9.63367 3.76969,-3.07161 9.77328,-6.28283 6.14321,-3.35084 10.89024,-3.35084 4.88664,0 8.09787,3.21122 3.21122,3.0716 3.21122,8.65634 0,5.58474 -3.07161,18.42963 -3.0716,12.84489 -3.0716,17.31268 0,4.32817 1.25657,4.32817 0.83771,0 5.72435,-2.65275 l 1.5358,-0.83771 2.51313,4.88664 q -3.63008,3.63008 -9.9129,6.98092 -6.14321,3.21123 -10.89024,3.21123 -10.47138,0 -10.47138,-11.86757 0,-4.32817 2.93199,-17.31268 3.0716,-13.12413 3.0716,-17.03344 0,-4.04894 -2.37351,-4.04894 -4.04893,0 -9.21481,3.07161 -0.27924,2.79237 -3.90932,18.9881 -3.49046,16.19573 -3.49046,25.13131 -4.04893,1.81504 -18.9881,1.81504 -0.27924,-1.5358 -0.27924,-7.39977 0,-5.86398 3.21123,-19.96543 3.35084,-14.10146 3.35084,-17.87116 0,-3.7697 -2.65275,-3.7697 -4.18855,0 -9.21481,3.35085 -0.27924,1.25656 -2.79237,12.28641 -5.02626,22.05971 -5.02626,31.41414 -4.88665,1.95466 -17.59192,1.95466 z" />
      <path
         id="path4822"
         style=""
         d="m 276.61642,431.09791 q -9.63367,0 -15.07879,-6.70169 -5.44511,-6.8413 -5.44511,-18.9881 0,-15.49764 8.23748,-26.66711 8.37711,-11.16947 23.03704,-11.16947 l 5.02626,0.27923 q 2.37351,-1.25656 5.3055,-1.25656 11.02985,0 11.02985,20.80314 5.72436,-0.27924 11.58833,-1.5358 l 2.23389,-0.55848 0.83771,5.44512 q -4.6074,1.95466 -12.42603,3.49046 l -2.79237,0.55847 q -2.65275,14.65994 -10.75062,25.55017 -8.09787,10.75062 -20.80314,10.75062 z m 7.53939,-12.00719 q 5.86398,0 10.47138,-7.53939 4.74703,-7.53939 6.56207,-15.9165 -14.93917,0 -14.93917,-11.16947 0,-4.46779 1.81504,-8.3771 l 0.69809,-1.39618 q -0.55847,-0.27924 -1.39618,-0.27924 -0.83771,0 -1.25657,0.27924 -3.49046,2.23389 -6.56206,10.47137 -3.07161,8.23749 -3.07161,18.84849 0,15.07878 7.67901,15.07878 z" />
      <path
         id="path4824"
         style=""
         d="m 335.24524,431.09791 q -9.63367,0 -15.07879,-6.70169 -5.44512,-6.8413 -5.44512,-18.9881 0,-15.49764 8.23749,-26.66711 8.3771,-11.16947 23.03703,-11.16947 l 5.02626,0.27923 q 2.37352,-1.25656 5.3055,-1.25656 11.02986,0 11.02986,20.80314 5.72435,-0.27924 11.58832,-1.5358 l 2.2339,-0.55848 0.83771,5.44512 q -4.60741,1.95466 -12.42604,3.49046 l -2.79237,0.55847 q -2.65275,14.65994 -10.75061,25.55017 -8.09787,10.75062 -20.80314,10.75062 z m 7.53939,-12.00719 q 5.86397,0 10.47138,-7.53939 4.74702,-7.53939 6.56206,-15.9165 -14.93917,0 -14.93917,-11.16947 0,-4.46779 1.81504,-8.3771 l 0.6981,-1.39618 q -0.55848,-0.27924 -1.39619,-0.27924 -0.83771,0 -1.25656,0.27924 -3.49046,2.23389 -6.56207,10.47137 -3.0716,8.23749 -3.0716,18.84849 0,15.07878 7.67901,15.07878 z" />
      <path
         id="path4826"
         style=""
         d="m 416.66457,369.24696 q -0.27924,3.49046 -2.37351,8.09786 -5.3055,-0.55847 -10.05253,-0.55847 l -2.51313,0 q -6.42245,31.1349 -6.42245,38.81391 0,4.04894 1.67542,4.04894 1.81504,0 9.35444,-3.49046 l 2.51313,4.6074 q -12.42604,10.33177 -23.03704,10.33177 -4.88664,0 -8.09786,-3.07161 -3.07161,-3.0716 -3.07161,-8.09787 0,-5.16588 1.11695,-11.58832 1.25656,-6.42245 3.35084,-15.63726 2.09428,-9.35443 3.07161,-15.07879 -5.16589,0.41886 -7.67902,0.83771 -0.27923,-1.67542 -0.27923,-4.46779 0,-2.93198 0.41885,-4.74702 l 8.79596,0 q 1.11695,-7.5394 1.11695,-14.24108 l -0.13962,-4.32817 0,-0.41885 q 10.89023,-3.7697 20.5239,-3.7697 0.55848,2.79237 0.55848,6.98092 0,4.18855 -2.37352,15.77688 l 13.54299,0 z" />
      <path
         id="path4828"
         style=""
         d="m 430.2032,337.27435 q 0,-4.60741 -0.83771,-6.56207 10.89024,-3.7697 20.52391,-3.7697 1.25656,1.25657 1.25656,6.42245 0,9.21481 -7.81863,42.44399 11.30909,-8.23748 19.82581,-8.23748 5.3055,0 7.95825,3.35084 2.79237,3.35084 2.79237,8.93558 0,5.44511 -3.21122,18.01077 -3.21123,12.42604 -3.21123,17.03344 0,4.60741 1.11695,4.60741 1.11695,0 5.86397,-2.51313 l 1.67542,-0.83771 2.51313,4.88664 q -1.25656,1.11695 -3.35084,2.79237 -2.09427,1.67542 -7.67901,4.46779 -5.58473,2.79237 -10.33176,2.79237 -4.60741,0 -7.39977,-2.93199 -2.79237,-3.0716 -2.79237,-8.09787 0,-5.16588 3.0716,-18.56924 3.21123,-13.54299 3.21123,-17.03345 0,-3.63008 -2.93199,-3.63008 -3.63008,0 -9.0752,3.07161 -7.67901,33.78765 -7.67901,43.84017 -5.86397,2.2339 -19.96543,2.2339 -0.13962,-2.37351 -0.13962,-4.18855 0,-6.00359 8.23749,-41.04781 8.3771,-35.04422 8.3771,-47.47025 z" />
      <path
         id="path4830"
         style=""
         d="m 543.62352,431.09791 q -12.98451,0 -21.50124,-10.47138 -8.51672,-10.611 -8.51672,-27.64445 0,-17.03344 5.86397,-30.99528 5.86398,-14.10146 16.75421,-22.89741 10.89024,-8.79596 23.17665,-8.79596 12.42604,0 19.96543,5.58473 7.67902,5.58474 7.67902,13.40337 0,7.67901 -4.60741,13.12413 -4.46779,0 -10.05253,-1.95466 -5.58473,-1.95466 -8.3771,-4.74703 l 2.65275,-14.10145 q -3.35084,-2.09428 -8.79596,-2.09428 -8.51672,0 -15.07878,14.65993 -6.56207,14.52031 -6.56207,35.88193 0,14.10146 4.60741,20.5239 4.74702,6.28283 11.44871,6.28283 11.02985,0 21.22199,-10.33176 l 5.72436,5.16588 q -1.53581,2.23389 -5.58474,6.14321 -4.04893,3.90931 -7.95825,6.56206 -3.90931,2.51313 -9.9129,4.60741 -6.00359,2.09428 -12.1468,2.09428 z" />
      <path
         id="path4832"
         style=""
         d="m 611.47368,431.09791 q -6.28283,0 -10.611,-5.16588 -4.18855,-5.3055 -4.18855,-12.98452 0,-7.67901 1.95466,-27.08596 1.95465,-19.40696 1.95465,-27.64445 0,-8.23748 -1.81504,-12.84489 l -5.72435,-10.611 0.55847,-2.09427 q 11.30909,-2.37351 28.0633,-2.37351 1.39618,5.3055 1.39618,16.33535 0,11.02985 -2.79236,32.11223 -2.65275,20.94276 -2.65275,27.92368 0,6.8413 4.32817,6.8413 4.32817,0 11.02985,-7.39978 6.8413,-7.39977 12.98451,-19.40695 6.14321,-12.1468 7.53939,-23.31627 l -14.79955,-8.65634 q 1.11695,-10.611 5.16589,-16.89383 3.63007,-5.58474 6.00359,-7.12054 l 0.97733,-0.69809 q 8.51672,0 12.84489,4.46779 4.46779,4.46779 4.46779,10.611 0,15.2184 -9.0752,35.60269 -9.0752,20.38428 -22.61818,35.46307 -13.54298,14.93917 -24.99169,14.93917 z" />
    </g>
    <g
       id="text4140"
       style="font-style:normal;font-variant:normal;font-weight:normal;font-stretch:normal;font-size:47.59553909px;line-height:125%;font-family:'Oleo Script';-inkscape-font-specification:'Oleo Script, Normal';text-align:start;letter-spacing:0px;word-spacing:0px;writing-mode:lr-tb;text-anchor:start;fill:#ead94e;fill-opacity:1;stroke:none;stroke-width:1px;stroke-linecap:butt;stroke-linejoin:miter;stroke-opacity:1">
      <path
         id="path4835"
         style=""
         d="m 463.89482,458.91918 q 0,3.61726 -2.42737,14.18347 2.85573,-2.0466 5.14032,-2.0466 2.33218,0 3.95043,1.95141 1.66584,1.90382 1.66584,5.85425 0,6.61578 -2.61776,10.23304 -2.57015,3.61727 -6.28261,3.61727 -1.38027,0 -2.80813,-0.33317 -1.38027,-0.33317 -2.09421,-0.71394 l -0.71393,-0.33317 q -3.04611,1.04711 -5.94944,1.04711 -0.28558,-0.23798 -0.28558,-2.28459 0,-2.0942 2.66535,-13.70751 2.66535,-11.66091 2.66535,-15.94451 0,-0.76153 -0.23797,-1.95142 3.71245,-1.28508 7.09173,-1.28508 0.23798,0.66634 0.23798,1.71344 z m -0.42836,16.18249 q -0.90431,0 -2.71295,0.85672 -2.18939,9.23353 -2.37977,13.23156 1.42786,0.61874 2.71294,0.61874 1.80863,0 2.99852,-3.33169 1.23749,-3.33169 1.23749,-7.32971 0,-4.04562 -1.85623,-4.04562 z" />
      <path
         id="path4837"
         style=""
         d="m 480.90874,497.28119 q -1.57065,0.95191 -1.57065,1.85622 0,0.90432 0.9995,0.90432 1.0471,0 2.33218,-0.99951 1.28508,-0.95191 2.1418,-3.1413 -2.28458,0.42836 -3.90283,1.38027 z m -2.28459,-4.94994 q -3.99802,0 -3.99802,-4.37879 0,-1.0471 0.95191,-6.04463 0.95191,-4.99753 0.95191,-8.32922 0,-0.71393 -0.19038,-1.33268 2.57016,-0.9995 7.04414,-0.9995 0.23797,0.66634 0.23797,2.28458 0,1.61825 -1.0471,6.71097 -1.0471,5.09273 -1.0471,6.56819 0,1.47546 1.23748,1.47546 1.47547,0 3.56967,-1.47546 0.23798,-2.80814 1.90382,-14.80221 1.66585,-0.66634 5.99704,-0.66634 l 0.90431,0 q -0.90431,3.56966 -1.76103,10.28064 -0.85672,6.71097 -1.38027,9.32872 -0.99951,5.23551 -3.71245,8.5196 -2.66535,3.33169 -6.99655,3.33169 -1.71344,0 -3.1413,-0.90432 -1.38027,-0.90431 -1.38027,-2.33218 0,-1.90382 2.33218,-3.47447 2.33218,-1.57065 6.28261,-2.42737 0.42836,-2.09421 0.66634,-4.04562 -3.85524,2.71294 -7.42491,2.71294 z" />
      <path
         id="path4839"
         style=""
         d="m 507.09819,491.52213 q -0.33317,1.0471 -1.52306,1.0471 -1.14229,0 -2.61776,-1.28508 1.42787,-4.18841 6.04464,-13.46954 4.61677,-9.32872 5.99704,-13.94549 0.19038,-0.76153 0.19038,-1.0471 0,-0.71394 -1.0471,-2.1894 l -0.38077,-0.52355 0.0952,-0.61874 q 4.04562,-1.14229 8.94796,-1.14229 l 2.90333,0.19038 q 0.52355,0.71393 0.80913,2.18939 0.76153,3.61726 0.76153,18.60986 0,5.80665 0.9995,8.18643 0.38077,0.90432 0.76153,0.90432 0.38076,0 2.33218,-0.95191 l 0.61874,-0.28558 0.95191,1.71344 q -1.80863,1.76104 -4.04562,2.80814 -2.18939,0.99951 -4.04562,0.99951 -4.80715,0 -4.80715,-7.4725 l 0,-3.76005 q -1.23748,-0.28557 -3.76004,-0.28557 -2.52257,0 -5.52109,0.47595 -2.37977,5.52108 -3.66485,9.85228 z m 13.04117,-13.27916 0.0476,-5.52108 q 0,-7.23452 -0.61874,-9.80468 -0.38077,0 -0.57115,0.0952 -1.33267,3.66486 -2.52256,6.23501 -1.14229,2.52257 -2.52257,5.4259 -1.33267,2.85573 -1.66584,3.56966 l 7.85326,0 z" />
      <path
         id="path4841"
         style=""
         d="m 531.71326,502.80227 q -0.23798,-0.57115 -0.23798,-2.52256 0,-1.95142 1.85623,-10.47102 1.85622,-8.5672 1.85622,-13.18397 0,-0.90431 -0.42836,-1.90382 -0.42836,-1.0471 -0.90431,-1.61825 l -0.42836,-0.52355 0.0476,-0.61874 q 2.23699,-0.71393 7.90085,-0.71393 0.52356,0.9995 0.66634,2.80813 3.66486,-2.99851 6.09223,-2.99851 2.47497,0 3.95043,2.0466 1.52306,2.04661 1.52306,5.99704 0,6.90135 -2.52257,10.28064 -2.52256,3.33169 -6.3778,3.33169 -1.99901,0 -3.33169,-0.57115 l -0.47595,-0.19038 0.33317,-1.85623 q 0.42836,0.0952 0.9995,0.0952 1.23749,0 2.1418,-1.14229 0.95191,-1.14229 1.42787,-2.90333 0.95191,-3.52207 0.95191,-6.52059 0,-4.2836 -1.76103,-4.2836 -1.38028,0 -2.95093,1.0947 -0.19038,3.33169 -1.95141,11.66091 -1.76104,8.32922 -1.76104,13.42194 -2.57016,1.0471 -6.61578,1.28508 z" />
      <path
         id="path4843"
         style=""
         d="m 554.39551,502.80227 q -0.23798,-0.57115 -0.23798,-2.52256 0,-1.95142 1.85623,-10.47102 1.85623,-8.5672 1.85623,-13.18397 0,-0.90431 -0.42836,-1.90382 -0.42836,-1.0471 -0.90432,-1.61825 l -0.42836,-0.52355 0.0476,-0.61874 q 2.23699,-0.71393 7.90086,-0.71393 0.52355,0.9995 0.66633,2.80813 3.66486,-2.99851 6.09223,-2.99851 2.47497,0 3.95043,2.0466 1.52306,2.04661 1.52306,5.99704 0,6.90135 -2.52256,10.28064 -2.52257,3.33169 -6.37781,3.33169 -1.99901,0 -3.33168,-0.57115 l -0.47596,-0.19038 0.33317,-1.85623 q 0.42836,0.0952 0.99951,0.0952 1.23748,0 2.14179,-1.14229 0.95192,-1.14229 1.42787,-2.90333 0.95191,-3.52207 0.95191,-6.52059 0,-4.2836 -1.76103,-4.2836 -1.38027,0 -2.95093,1.0947 -0.19038,3.33169 -1.95141,11.66091 -1.76104,8.32922 -1.76104,13.42194 -2.57016,1.0471 -6.61578,1.28508 z" />
      <path
         id="path4845"
         style=""
         d="m 588.3103,474.00697 q 0,1.99901 -1.28508,6.90135 -1.28508,4.85475 -1.28508,6.3778 0,1.47547 0.42836,1.47547 0.28558,0 2.1894,-0.90432 l 0.57114,-0.28557 0.80913,1.66584 q -0.42836,0.38077 -1.1423,0.95191 -0.71393,0.57115 -2.66535,1.57065 -1.95141,0.95192 -3.61726,0.95192 -1.66584,0 -2.61775,-0.99951 -0.95191,-1.0471 -0.95191,-2.76054 0,-1.76104 1.18989,-6.18742 1.18989,-4.47398 1.18989,-5.80666 0,-1.99901 -1.23749,-3.76005 l -0.42836,-0.57114 0.0476,-0.61874 q 2.52256,-0.71394 8.18643,-0.71394 0.61874,0.71394 0.61874,2.71295 z m -5.42589,-7.90086 q -0.95191,-0.95191 -0.95191,-2.52256 0,-1.57066 1.28508,-2.76055 1.33267,-1.18988 3.04611,-1.18988 1.71344,0 2.66535,0.95191 0.95191,0.95191 0.95191,2.52256 0,1.52306 -1.38027,2.71295 -1.33267,1.18988 -2.99852,1.18988 -1.66584,0 -2.61775,-0.90431 z" />
      <path
         id="path4847"
         style=""
         d="m 613.93975,489.23754 q -4.04562,3.47448 -7.13933,3.47448 -3.04611,0 -3.52207,-3.04612 -1.42787,1.42787 -3.1889,2.23699 -1.76104,0.80913 -3.09371,0.80913 -2.28459,0 -3.90284,-1.99902 -1.61824,-1.99901 -1.61824,-6.18742 0,-6.28261 2.66535,-9.85227 2.66535,-3.61726 5.99703,-3.61726 3.37929,0 5.66387,1.52305 1.47547,-7.71047 1.47547,-12.13686 l -0.23798,-1.99901 q 3.56966,-1.23749 6.99654,-1.23749 0.38077,0.80913 0.38077,1.85623 0,3.47447 -2.09421,14.13587 -2.0942,10.61381 -2.0942,14.42145 0,1.1423 0.52355,1.1423 0.28557,0 1.80863,-0.90432 l 0.47596,-0.28557 0.90431,1.66584 z m -11.47052,-15.37336 q -1.66585,0 -2.90333,3.28409 -1.18989,3.2841 -1.18989,6.52059 0,3.1889 0.42836,4.09322 0.47595,0.90431 1.38027,0.90431 1.57065,0 3.09371,-1.28507 0.14279,-1.90383 2.1418,-12.66042 -1.61825,-0.85672 -2.95092,-0.85672 z" />
      <path
         id="path4849"
         style=""
         d="m 615.07981,483.90684 q 0,-5.94944 3.56967,-9.37632 3.61726,-3.47447 8.18643,-3.47447 2.80814,0 4.61677,1.38027 1.80863,1.38027 1.80863,3.71245 0,2.28458 -1.18989,3.85524 -1.14229,1.57065 -2.80813,2.42737 -3.37929,1.66584 -6.18742,2.0942 l -1.1423,0.14279 q 0.33317,4.47398 3.66486,4.47398 1.14229,0 2.42737,-0.57115 1.28508,-0.57114 1.99901,-1.14229 l 0.71394,-0.57115 1.14229,1.52306 q -0.38076,0.52355 -1.52306,1.38027 -1.14229,0.85672 -2.1418,1.42787 -2.76054,1.52306 -6.04463,1.52306 -3.28409,0 -5.18791,-2.33219 -1.90383,-2.33218 -1.90383,-6.47299 z m 6.80617,-1.57065 q 2.42737,-0.42836 3.85524,-2.04661 1.42786,-1.61825 1.42786,-4.18841 0,-2.57016 -1.52306,-2.57016 -1.80863,0 -2.80813,3.09371 -0.95191,3.04612 -0.95191,5.71147 z" />
      <path
         id="path4851"
         style=""
         d="m 648.51048,472.43632 q 0.0952,-0.0952 0.52355,-1.23749 2.23699,0 5.99704,1.33268 -1.18989,3.95043 -1.90383,8.28162 -0.71393,4.2836 -0.71393,6.13983 0,1.80863 0.38076,1.80863 0.28558,0 2.09421,-0.90432 l 0.57114,-0.28557 0.85672,1.66584 q -0.42836,0.38077 -1.14229,0.95191 -0.66634,0.57115 -2.57016,1.57065 -1.90382,0.95192 -3.42688,0.95192 -2.95092,0 -3.42688,-2.66535 -3.04611,2.66535 -5.52108,2.66535 -2.42737,0 -4.14081,-1.90383 -1.66584,-1.90382 -1.66584,-5.99703 0,-6.37781 2.61775,-10.04266 2.61776,-3.71245 6.33021,-3.71245 2.66535,0 5.14032,1.38027 z m -5.4259,16.23007 q 1.1423,0 2.57016,-0.90431 0.33317,-6.71097 2.23699,-13.27916 -1.42786,-0.61874 -2.42737,-0.61874 -1.71344,0 -2.95092,3.37929 -1.18989,3.33168 -1.18989,7.3773 0,4.04562 1.76103,4.04562 z" />
      <path
         id="path4853"
         style=""
         d="m 661.19543,492.71202 q -1.66584,0 -2.57016,-0.99951 -0.90431,-0.99951 -0.90431,-2.66535 0,-1.66584 1.23748,-2.85573 1.23748,-1.23749 2.90333,-1.23749 1.71344,0 2.61775,0.99951 0.90432,0.95191 0.90432,2.61775 0,1.61825 -1.28508,2.90333 -1.23749,1.23749 -2.90333,1.23749 z" />
      <path
         id="path4855"
         style=""
         d="m 667.52788,502.80227 q -0.23798,-0.57115 -0.23798,-2.52256 0,-1.95142 1.85623,-10.47102 1.85623,-8.5672 1.85623,-13.18397 0,-0.90431 -0.42836,-1.90382 -0.42836,-1.0471 -0.90432,-1.61825 l -0.42836,-0.52355 0.0476,-0.61874 q 2.23699,-0.71393 7.90086,-0.71393 0.52355,0.9995 0.66633,2.80813 3.66486,-2.99851 6.09223,-2.99851 2.47497,0 3.95043,2.0466 1.52306,2.04661 1.52306,5.99704 0,6.90135 -2.52256,10.28064 -2.52257,3.33169 -6.37781,3.33169 -1.99901,0 -3.33168,-0.57115 l -0.47596,-0.19038 0.33317,-1.85623 q 0.42836,0.0952 0.99951,0.0952 1.23748,0 2.14179,-1.14229 0.95192,-1.14229 1.42787,-2.90333 0.95191,-3.52207 0.95191,-6.52059 0,-4.2836 -1.76103,-4.2836 -1.38027,0 -2.95093,1.0947 -0.19038,3.33169 -1.95141,11.66091 -1.76104,8.32922 -1.76104,13.42194 -2.57016,1.0471 -6.61578,1.28508 z" />
      <path
         id="path4857"
         style=""
         d="m 695.25524,492.71202 q -1.61824,0 -2.71294,-1.0947 -1.0471,-1.0947 -1.0471,-3.04612 0,-1.99901 2.33218,-12.61281 2.37977,-10.6614 2.37977,-15.37336 l -0.28557,-2.09421 q 3.71245,-1.28508 6.94895,-1.28508 0.47596,0.66634 0.47596,2.33218 0,3.80765 -2.42738,14.75462 -2.37977,10.89938 -2.37977,12.70801 0,1.76104 0.42836,1.76104 l 3.33168,-1.18989 0.85672,1.66584 q -1.61824,1.28508 -3.95043,2.37978 -2.28458,1.0947 -3.95043,1.0947 z" />
    </g>
  </g>
</svg>
