<?xml version="1.0" encoding="UTF-8" standalone="no"?>
<svg
   xmlns:dc="http://purl.org/dc/elements/1.1/"
   xmlns:cc="http://creativecommons.org/ns#"
   xmlns:rdf="http://www.w3.org/1999/02/22-rdf-syntax-ns#"
   xmlns:svg="http://www.w3.org/2000/svg"
   xmlns="http://www.w3.org/2000/svg"
   version="1.1"
   id="svg2"
   viewBox="0 0 580.20388 104.15533"
   height="29.394949mm"
   width="163.74643mm">
  <defs
     id="defs4" />
  <metadata
     id="metadata7">
    <rdf:RDF>
      <cc:Work
         rdf:about="">
        <dc:format>image/svg+xml</dc:format>
        <dc:type
           rdf:resource="http://purl.org/dc/dcmitype/StillImage" />
        <dc:title></dc:title>
      </cc:Work>
    </rdf:RDF>
  </metadata>
  <g
     transform="translate(-87.95488,-326.94258)"
     id="layer1">
    <g
       id="text4136"
       style="font-style:normal;font-variant:normal;font-weight:normal;font-stretch:normal;font-size:139.61839294px;line-height:125%;font-family:'Oleo Script';-inkscape-font-specification:'Oleo Script, Normal';text-align:start;letter-spacing:0px;word-spacing:0px;writing-mode:lr-tb;text-anchor:start;fill:#ffffff;fill-opacity:1;stroke:none;stroke-width:1px;stroke-linecap:butt;stroke-linejoin:miter;stroke-opacity:1">
      <path
         id="path4818"
         d="m 146.03613,402.05728 q 0,13.40337 -10.19214,21.222 -10.19214,7.81863 -24.71246,7.81863 -9.77328,0 -16.195731,-4.88665 -6.282827,-5.02626 -6.980919,-8.51672 1.535802,-4.60741 6.562064,-10.33176 5.026262,-5.72435 9.075196,-6.98092 7.12054,4.60741 13.26375,20.5239 9.07519,-0.27923 9.07519,-9.9129 0,-5.3055 -4.32817,-12.98451 -4.18855,-7.81863 -9.21481,-14.52032 -5.02626,-6.8413 -9.35443,-15.2184 -4.188556,-8.51672 -4.188556,-15.07879 0,-10.611 8.516726,-16.7542 8.65634,-6.14321 19.40695,-6.14321 10.75062,0 16.61459,4.6074 6.00359,4.60741 6.00359,10.47138 0,5.86398 -4.46779,12.00718 -4.46778,6.14321 -8.93557,9.77329 l -4.46779,3.63008 q 1.67542,2.23389 4.04893,5.72435 2.37351,3.49046 6.42245,11.86757 4.04893,8.3771 4.04893,13.6826 z m -10.75062,-45.79483 q 1.95466,-1.81504 3.49046,-4.32817 1.53581,-2.65275 1.53581,-5.44512 0,-2.93199 -3.35084,-4.88664 -3.35085,-1.95466 -8.09787,-1.95466 -4.60741,0 -7.81863,2.23389 -3.07161,2.09428 -3.07161,5.16588 0,2.93199 1.95466,6.98092 2.09428,3.90932 4.04894,6.56207 l 2.09427,2.65275 q 1.39618,-0.69809 4.32817,-2.93199 3.07161,-2.23389 4.88664,-4.04893 z" />
      <path
         id="path4820"
         d="m 158.30728,429.84134 -2.65275,0 q 0,-6.56206 3.90931,-25.13131 4.04894,-18.56925 4.04894,-21.08238 0,-4.6074 -3.90932,-9.77329 l -1.25656,-1.67542 0.13961,-1.81503 q 7.5394,-2.09428 24.15399,-2.09428 1.95465,2.65275 1.95465,8.65634 12.56566,-9.35443 19.96543,-9.35443 9.35444,0 11.02986,9.63367 3.76969,-3.07161 9.77328,-6.28283 6.14321,-3.35084 10.89024,-3.35084 4.88664,0 8.09787,3.21122 3.21122,3.0716 3.21122,8.65634 0,5.58474 -3.07161,18.42963 -3.0716,12.84489 -3.0716,17.31268 0,4.32817 1.25657,4.32817 0.83771,0 5.72435,-2.65275 l 1.5358,-0.83771 2.51313,4.88664 q -3.63008,3.63008 -9.9129,6.98092 -6.14321,3.21123 -10.89024,3.21123 -10.47138,0 -10.47138,-11.86757 0,-4.32817 2.93199,-17.31268 3.0716,-13.12413 3.0716,-17.03344 0,-4.04894 -2.37351,-4.04894 -4.04893,0 -9.21481,3.07161 -0.27924,2.79237 -3.90932,18.9881 -3.49046,16.19573 -3.49046,25.13131 -4.04893,1.81504 -18.9881,1.81504 -0.27924,-1.5358 -0.27924,-7.39977 0,-5.86398 3.21123,-19.96543 3.35084,-14.10146 3.35084,-17.87116 0,-3.7697 -2.65275,-3.7697 -4.18855,0 -9.21481,3.35085 -0.27924,1.25656 -2.79237,12.28641 -5.02626,22.05971 -5.02626,31.41414 -4.88665,1.95466 -17.59192,1.95466 z" />
      <path
         id="path4822"
         d="m 276.61642,431.09791 q -9.63367,0 -15.07879,-6.70169 -5.44511,-6.8413 -5.44511,-18.9881 0,-15.49764 8.23748,-26.66711 8.37711,-11.16947 23.03704,-11.16947 l 5.02626,0.27923 q 2.37351,-1.25656 5.3055,-1.25656 11.02985,0 11.02985,20.80314 5.72436,-0.27924 11.58833,-1.5358 l 2.23389,-0.55848 0.83771,5.44512 q -4.6074,1.95466 -12.42603,3.49046 l -2.79237,0.55847 q -2.65275,14.65994 -10.75062,25.55017 -8.09787,10.75062 -20.80314,10.75062 z m 7.53939,-12.00719 q 5.86398,0 10.47138,-7.53939 4.74703,-7.53939 6.56207,-15.9165 -14.93917,0 -14.93917,-11.16947 0,-4.46779 1.81504,-8.3771 l 0.69809,-1.39618 q -0.55847,-0.27924 -1.39618,-0.27924 -0.83771,0 -1.25657,0.27924 -3.49046,2.23389 -6.56206,10.47137 -3.07161,8.23749 -3.07161,18.84849 0,15.07878 7.67901,15.07878 z" />
      <path
         id="path4824"
         d="m 335.24524,431.09791 q -9.63367,0 -15.07879,-6.70169 -5.44512,-6.8413 -5.44512,-18.9881 0,-15.49764 8.23749,-26.66711 8.3771,-11.16947 23.03703,-11.16947 l 5.02626,0.27923 q 2.37352,-1.25656 5.3055,-1.25656 11.02986,0 11.02986,20.80314 5.72435,-0.27924 11.58832,-1.5358 l 2.2339,-0.55848 0.83771,5.44512 q -4.60741,1.95466 -12.42604,3.49046 l -2.79237,0.55847 q -2.65275,14.65994 -10.75061,25.55017 -8.09787,10.75062 -20.80314,10.75062 z m 7.53939,-12.00719 q 5.86397,0 10.47138,-7.53939 4.74702,-7.53939 6.56206,-15.9165 -14.93917,0 -14.93917,-11.16947 0,-4.46779 1.81504,-8.3771 l 0.6981,-1.39618 q -0.55848,-0.27924 -1.39619,-0.27924 -0.83771,0 -1.25656,0.27924 -3.49046,2.23389 -6.56207,10.47137 -3.0716,8.23749 -3.0716,18.84849 0,15.07878 7.67901,15.07878 z" />
      <path
         id="path4826"
         d="m 416.66457,369.24696 q -0.27924,3.49046 -2.37351,8.09786 -5.3055,-0.55847 -10.05253,-0.55847 l -2.51313,0 q -6.42245,31.1349 -6.42245,38.81391 0,4.04894 1.67542,4.04894 1.81504,0 9.35444,-3.49046 l 2.51313,4.6074 q -12.42604,10.33177 -23.03704,10.33177 -4.88664,0 -8.09786,-3.07161 -3.07161,-3.0716 -3.07161,-8.09787 0,-5.16588 1.11695,-11.58832 1.25656,-6.42245 3.35084,-15.63726 2.09428,-9.35443 3.07161,-15.07879 -5.16589,0.41886 -7.67902,0.83771 -0.27923,-1.67542 -0.27923,-4.46779 0,-2.93198 0.41885,-4.74702 l 8.79596,0 q 1.11695,-7.5394 1.11695,-14.24108 l -0.13962,-4.32817 0,-0.41885 q 10.89023,-3.7697 20.5239,-3.7697 0.55848,2.79237 0.55848,6.98092 0,4.18855 -2.37352,15.77688 l 13.54299,0 z" />
      <path
         id="path4828"
         d="m 430.2032,337.27435 q 0,-4.60741 -0.83771,-6.56207 10.89024,-3.7697 20.52391,-3.7697 1.25656,1.25657 1.25656,6.42245 0,9.21481 -7.81863,42.44399 11.30909,-8.23748 19.82581,-8.23748 5.3055,0 7.95825,3.35084 2.79237,3.35084 2.79237,8.93558 0,5.44511 -3.21122,18.01077 -3.21123,12.42604 -3.21123,17.03344 0,4.60741 1.11695,4.60741 1.11695,0 5.86397,-2.51313 l 1.67542,-0.83771 2.51313,4.88664 q -1.25656,1.11695 -3.35084,2.79237 -2.09427,1.67542 -7.67901,4.46779 -5.58473,2.79237 -10.33176,2.79237 -4.60741,0 -7.39977,-2.93199 -2.79237,-3.0716 -2.79237,-8.09787 0,-5.16588 3.0716,-18.56924 3.21123,-13.54299 3.21123,-17.03345 0,-3.63008 -2.93199,-3.63008 -3.63008,0 -9.0752,3.07161 -7.67901,33.78765 -7.67901,43.84017 -5.86397,2.2339 -19.96543,2.2339 -0.13962,-2.37351 -0.13962,-4.18855 0,-6.00359 8.23749,-41.04781 8.3771,-35.04422 8.3771,-47.47025 z" />
      <path
         id="path4830"
         d="m 543.62352,431.09791 q -12.98451,0 -21.50124,-10.47138 -8.51672,-10.611 -8.51672,-27.64445 0,-17.03344 5.86397,-30.99528 5.86398,-14.10146 16.75421,-22.89741 10.89024,-8.79596 23.17665,-8.79596 12.42604,0 19.96543,5.58473 7.67902,5.58474 7.67902,13.40337 0,7.67901 -4.60741,13.12413 -4.46779,0 -10.05253,-1.95466 -5.58473,-1.95466 -8.3771,-4.74703 l 2.65275,-14.10145 q -3.35084,-2.09428 -8.79596,-2.09428 -8.51672,0 -15.07878,14.65993 -6.56207,14.52031 -6.56207,35.88193 0,14.10146 4.60741,20.5239 4.74702,6.28283 11.44871,6.28283 11.02985,0 21.22199,-10.33176 l 5.72436,5.16588 q -1.53581,2.23389 -5.58474,6.14321 -4.04893,3.90931 -7.95825,6.56206 -3.90931,2.51313 -9.9129,4.60741 -6.00359,2.09428 -12.1468,2.09428 z" />
      <path
         id="path4832"
         d="m 611.47368,431.09791 q -6.28283,0 -10.611,-5.16588 -4.18855,-5.3055 -4.18855,-12.98452 0,-7.67901 1.95466,-27.08596 1.95465,-19.40696 1.95465,-27.64445 0,-8.23748 -1.81504,-12.84489 l -5.72435,-10.611 0.55847,-2.09427 q 11.30909,-2.37351 28.0633,-2.37351 1.39618,5.3055 1.39618,16.33535 0,11.02985 -2.79236,32.11223 -2.65275,20.94276 -2.65275,27.92368 0,6.8413 4.32817,6.8413 4.32817,0 11.02985,-7.39978 6.8413,-7.39977 12.98451,-19.40695 6.14321,-12.1468 7.53939,-23.31627 l -14.79955,-8.65634 q 1.11695,-10.611 5.16589,-16.89383 3.63007,-5.58474 6.00359,-7.12054 l 0.97733,-0.69809 q 8.51672,0 12.84489,4.46779 4.46779,4.46779 4.46779,10.611 0,15.2184 -9.0752,35.60269 -9.0752,20.38428 -22.61818,35.46307 -13.54298,14.93917 -24.99169,14.93917 z" />
    </g>
  </g>
</svg>
